<?xml version="1.0" standalone="no"?>
<!DOCTYPE svg PUBLIC "-//W3C//DTD SVG 20010904//EN"
 "http://www.w3.org/TR/2001/REC-SVG-20010904/DTD/svg10.dtd">
<svg version="1.0" xmlns="http://www.w3.org/2000/svg"
 width="680.000000pt" height="680.000000pt" viewBox="0 0 680.000000 680.000000"
 preserveAspectRatio="xMidYMid meet">
<metadata>
Created by potrace 1.14, written by Peter Selinger 2001-2017
</metadata>
<g transform="translate(0.000000,680.000000) scale(0.100000,-0.100000)"
fill="#000000" stroke="none">
<path d="M0 3400 l0 -3400 3400 0 3400 0 0 3400 0 3400 -3400 0 -3400 0 0
-3400z m3694 2129 c4 -5 176 -1666 176 -1698 0 -28 -36 -71 -59 -71 -9 -1
-147 34 -308 77 -283 75 -293 78 -309 108 -16 30 -13 42 190 800 114 424 209
776 211 784 4 10 18 12 51 8 25 -2 46 -6 48 -8z m-679 -1683 l26 -35 -66 -248
c-99 -367 -91 -347 -124 -366 -29 -17 -38 -15 -808 192 l-778 208 -3 50 -3 51
113 12 c179 19 1592 168 1605 169 7 0 24 -14 38 -33z m1750 -441 c423 -114
771 -207 772 -209 2 -1 0 -23 -3 -48 -6 -45 -7 -46 -48 -52 -22 -3 -390 -42
-816 -86 -426 -44 -796 -82 -821 -86 -44 -5 -48 -4 -72 28 l-26 34 69 254 c37
140 73 274 80 298 11 43 58 85 84 77 6 -3 357 -97 781 -210z m-1480 -441 c175
-47 295 -84 303 -93 7 -9 15 -26 18 -38 3 -12 -83 -353 -202 -797 l-208 -776
-47 0 c-44 0 -48 2 -53 28 -3 15 -44 404 -92 866 l-87 838 29 24 c16 13 34 24
39 24 6 0 141 -34 300 -76z"/>
</g>
</svg>
